<svg xmlns:xlink="http://www.w3.org/1999/xlink" version="1.1" class="highcharts-root" style="font-family: Roboto; font-size: 12px;" xmlns="http://www.w3.org/2000/svg" width="650" height="400" viewBox="0 0 650 400" aria-label="Interactive chart" aria-hidden="false"><desc aria-hidden="true">Created with Highcharts 10.3.1</desc><defs aria-hidden="true"><clipPath id="highcharts-kusqgep-37-"><rect x="0" y="0" width="572" height="279" fill="none"></rect></clipPath><clipPath id="highcharts-kusqgep-44-"><rect x="0" y="0" width="572" height="279" fill="none"></rect></clipPath></defs><rect fill="#ffffff" class="highcharts-background" x="0" y="0" width="650" height="400" rx="0" ry="0" aria-hidden="true"></rect><rect fill="none" class="highcharts-plot-background" x="68" y="47" width="572" height="279" aria-hidden="true"></rect><g class="highcharts-pane-group" data-z-index="0" aria-hidden="true"></g><g class="highcharts-grid highcharts-xaxis-grid" data-z-index="1" aria-hidden="true"><path fill="none" stroke-dasharray="none" data-z-index="1" class="highcharts-grid-line" d="M 162.5 47 L 162.5 326" opacity="1"></path><path fill="none" stroke-dasharray="none" data-z-index="1" class="highcharts-grid-line" d="M 258.5 47 L 258.5 326" opacity="1"></path><path fill="none" stroke-dasharray="none" data-z-index="1" class="highcharts-grid-line" d="M 353.5 47 L 353.5 326" opacity="1"></path><path fill="none" stroke-dasharray="none" data-z-index="1" class="highcharts-grid-line" d="M 448.5 47 L 448.5 326" opacity="1"></path><path fill="none" stroke-dasharray="none" data-z-index="1" class="highcharts-grid-line" d="M 544.5 47 L 544.5 326" opacity="1"></path><path fill="none" stroke-dasharray="none" data-z-index="1" class="highcharts-grid-line" d="M 639.5 47 L 639.5 326" opacity="1"></path><path fill="none" stroke-dasharray="none" data-z-index="1" class="highcharts-grid-line" d="M 67.5 47 L 67.5 326" opacity="1"></path></g><g class="highcharts-grid highcharts-yaxis-grid" data-z-index="1" aria-hidden="true"><path fill="none" stroke="#e6e6e6" stroke-width="1" stroke-dasharray="none" data-z-index="1" class="highcharts-grid-line" d="M 68 326.5 L 640 326.5" opacity="1"></path><path fill="none" stroke="#e6e6e6" stroke-width="1" stroke-dasharray="none" data-z-index="1" class="highcharts-grid-line" d="M 68 270.5 L 640 270.5" opacity="1"></path><path fill="none" stroke="#e6e6e6" stroke-width="1" stroke-dasharray="none" data-z-index="1" class="highcharts-grid-line" d="M 68 214.5 L 640 214.5" opacity="1"></path><path fill="none" stroke="#e6e6e6" stroke-width="1" stroke-dasharray="none" data-z-index="1" class="highcharts-grid-line" d="M 68 159.5 L 640 159.5" opacity="1"></path><path fill="none" stroke="#e6e6e6" stroke-width="1" stroke-dasharray="none" data-z-index="1" class="highcharts-grid-line" d="M 68 103.5 L 640 103.5" opacity="1"></path><path fill="none" stroke="#e6e6e6" stroke-width="1" stroke-dasharray="none" data-z-index="1" class="highcharts-grid-line" d="M 68 46.5 L 640 46.5" opacity="1"></path></g><rect fill="none" class="highcharts-plot-border" data-z-index="1" x="68" y="47" width="572" height="279" aria-hidden="true"></rect><g class="highcharts-axis highcharts-xaxis" data-z-index="2" aria-hidden="true"><path fill="none" class="highcharts-axis-line" stroke="#ccd6eb" stroke-width="1" data-z-index="7" d="M 68 326.5 L 640 326.5"></path></g><g class="highcharts-axis highcharts-yaxis" data-z-index="2" aria-hidden="true"><text x="24.46875" data-z-index="7" text-anchor="middle" transform="translate(0,0) rotate(270 24.46875 186.5)" class="highcharts-axis-title" style="color: rgb(102, 102, 102); fill: rgb(102, 102, 102);" y="186.5">Value</text><path fill="none" class="highcharts-axis-line" data-z-index="7" d="M 68 47 L 68 326"></path></g><g class="highcharts-series-group" data-z-index="3" aria-hidden="false"><g class="highcharts-series highcharts-series-0 highcharts-spline-series" data-z-index="0.1" opacity="1" transform="translate(68,47) scale(1 1)" clip-path="url(#highcharts-kusqgep-44-)" aria-hidden="true"><path fill="none" d="M 47.666666666667 150.66 C 47.666666666667 150.66 104.86666666666679 189.16200000000055 143 203.67000000000002 C 181.133333333336 218.17800000000054 200.200000000004 223.2 238.33333333334 223.2 C 276.466666666672 223.2 295.53333333333796 136.71 333.66666666667 136.71 C 371.800000000002 136.71 390.866666666668 156.24 429 156.24 C 467.13333333333594 156.24 524.33333333334 117.18 524.33333333334 117.18" class="highcharts-graph" data-z-index="1" stroke="#6f58e9" stroke-width="2" stroke-linejoin="round" stroke-linecap="round"></path></g><g class="highcharts-markers highcharts-series-0 highcharts-spline-series" data-z-index="0.1" opacity="1" transform="translate(68,47) scale(1 1)" clip-path="none" aria-hidden="false" role="region" tabindex="-1" aria-label="Item 1, line 1 of 2 with 6 data points." style="outline: none;"><path fill="#6f58e9" d="M 47 155 A 4 4 0 1 1 47.00399999933334 154.99999800000018 Z" opacity="1" class="highcharts-point" tabindex="-1" role="img" aria-label="Category 1, 66. Item 1." style="outline: none;"></path><path fill="#6f58e9" d="M 143 208 A 4 4 0 1 1 143.00399999933333 207.99999800000018 Z" opacity="1" class="highcharts-point" tabindex="-1" role="img" aria-label="Category 2, 47. Item 1." style="outline: none;"></path><path fill="#6f58e9" d="M 238 227 A 4 4 0 1 1 238.00399999933333 226.99999800000018 Z" opacity="1" class="highcharts-point" tabindex="-1" role="img" aria-label="Category 3, 40. Item 1." style="outline: none;"></path><path fill="#6f58e9" d="M 333 141 A 4 4 0 1 1 333.00399999933336 140.99999800000018 Z" opacity="1" class="highcharts-point" tabindex="-1" role="img" aria-label="Category 4, 71. Item 1." style="outline: none;"></path><path fill="#6f58e9" d="M 429 160 A 4 4 0 1 1 429.00399999933336 159.99999800000018 Z" opacity="1" class="highcharts-point" tabindex="-1" role="img" aria-label="Category 5, 64. Item 1." style="outline: none;"></path><path fill="#6f58e9" d="M 524 121 A 4 4 0 1 1 524.0039999993334 120.99999800000016 Z" opacity="1" class="highcharts-point" tabindex="-1" role="img" aria-label="Category 6, 78. Item 1." style="outline: none;"></path></g><g class="highcharts-series highcharts-series-1 highcharts-spline-series" data-z-index="0.1" opacity="1" transform="translate(68,47) scale(1 1)" clip-path="url(#highcharts-kusqgep-44-)" aria-hidden="true"><path fill="none" d="M 47.666666666667 94.86000000000001 C 47.666666666667 94.86000000000001 104.86666666666679 209.25 143 209.25 C 181.133333333336 209.25 200.200000000004 147.87 238.33333333334 147.87 C 276.466666666672 147.87 295.53333333333796 181.35 333.66666666667 181.35 C 371.800000000002 181.35 390.866666666668 58.59 429 58.59 C 467.13333333333594 58.59 524.33333333334 147.87 524.33333333334 147.87" class="highcharts-graph" data-z-index="1" stroke="#94d13d" stroke-width="2" stroke-linejoin="round" stroke-linecap="round"></path></g><g class="highcharts-markers highcharts-series-1 highcharts-spline-series" data-z-index="0.1" opacity="1" transform="translate(68,47) scale(1 1)" clip-path="none" aria-hidden="false" role="region" tabindex="-1" aria-label="Item 2, line 2 of 2 with 6 data points." style="outline: none;"><path fill="#94d13d" d="M 47 91 L 51 95 L 47 99 L 43 95 Z" opacity="1" class="highcharts-point" tabindex="-1" role="img" aria-label="Category 1, 86. Item 2." style="outline: none;"></path><path fill="#94d13d" d="M 143 205 L 147 209 L 143 213 L 139 209 Z" opacity="1" class="highcharts-point" tabindex="-1" role="img" aria-label="Category 2, 45. Item 2." style="outline: none;"></path><path fill="#94d13d" d="M 238 144 L 242 148 L 238 152 L 234 148 Z" opacity="1" class="highcharts-point" tabindex="-1" role="img" aria-label="Category 3, 67. Item 2." style="outline: none;"></path><path fill="#94d13d" d="M 333 177 L 337 181 L 333 185 L 329 181 Z" opacity="1" class="highcharts-point" tabindex="-1" role="img" aria-label="Category 4, 55. Item 2." style="outline: none;"></path><path fill="#94d13d" d="M 429 55 L 433 59 L 429 63 L 425 59 Z" opacity="1" class="highcharts-point" tabindex="-1" role="img" aria-label="Category 5, 99. Item 2." style="outline: none;"></path><path fill="#94d13d" d="M 524 144 L 528 148 L 524 152 L 520 148 Z" opacity="1" class="highcharts-point" tabindex="-1" role="img" aria-label="Category 6, 67. Item 2." style="outline: none;"></path></g></g><text x="325" text-anchor="middle" class="highcharts-title" data-z-index="4" style="color: rgb(51, 51, 51); font-size: 18px; fill: rgb(51, 51, 51);" y="24" aria-hidden="true">Chart title</text><text x="325" text-anchor="middle" class="highcharts-subtitle" data-z-index="4" style="color: rgb(102, 102, 102); fill: rgb(102, 102, 102);" y="46" aria-hidden="true"></text><text x="10" text-anchor="start" class="highcharts-caption" data-z-index="4" style="color: rgb(102, 102, 102); fill: rgb(102, 102, 102);" y="397" aria-hidden="true"></text><g class="highcharts-legend highcharts-no-tooltip" data-z-index="7" transform="translate(252,359)" aria-hidden="true"><rect fill="none" class="highcharts-legend-box" rx="0" ry="0" x="0" y="0" width="145" height="26"></rect><g data-z-index="1"><g><g class="highcharts-legend-item highcharts-spline-series highcharts-color-undefined highcharts-series-0" data-z-index="1" transform="translate(8,3)"><path fill="none" d="M 0 11 L 16 11" class="highcharts-graph" stroke="#6f58e9" stroke-width="2"></path><path fill="#6f58e9" d="M 8 15 A 4 4 0 1 1 8.003999999333336 14.999998000000167 Z" class="highcharts-point" opacity="1"></path><text x="21" text-anchor="start" data-z-index="2" y="15" style="color: rgb(51, 51, 51); cursor: pointer; font-size: 12px; font-weight: bold; fill: rgb(51, 51, 51);">Item 1</text></g><g class="highcharts-legend-item highcharts-spline-series highcharts-color-undefined highcharts-series-1" data-z-index="1" transform="translate(82.77083587646484,3)"><path fill="none" d="M 0 11 L 16 11" class="highcharts-graph" stroke="#94d13d" stroke-width="2"></path><path fill="#94d13d" d="M 8 7 L 12 11 L 8 15 L 4 11 Z" class="highcharts-point" opacity="1"></path><text x="21" y="15" text-anchor="start" data-z-index="2" style="color: rgb(51, 51, 51); cursor: pointer; font-size: 12px; font-weight: bold; fill: rgb(51, 51, 51);">Item 2</text></g></g></g></g><g class="highcharts-axis-labels highcharts-xaxis-labels" data-z-index="7" aria-hidden="true"><text x="115.66666666666333" text-anchor="middle" transform="translate(0,0)" style="color: rgb(102, 102, 102); cursor: default; font-size: 11px; fill: rgb(102, 102, 102);" y="345" opacity="1">Category 1</text><text x="211.00000000000333" text-anchor="middle" transform="translate(0,0)" style="color: rgb(102, 102, 102); cursor: default; font-size: 11px; fill: rgb(102, 102, 102);" y="345" opacity="1">Category 2</text><text x="306.3333333333333" text-anchor="middle" transform="translate(0,0)" style="color: rgb(102, 102, 102); cursor: default; font-size: 11px; fill: rgb(102, 102, 102);" y="345" opacity="1">Category 3</text><text x="401.66666666667334" text-anchor="middle" transform="translate(0,0)" style="color: rgb(102, 102, 102); cursor: default; font-size: 11px; fill: rgb(102, 102, 102);" y="345" opacity="1">Category 4</text><text x="497.00000000000335" text-anchor="middle" transform="translate(0,0)" style="color: rgb(102, 102, 102); cursor: default; font-size: 11px; fill: rgb(102, 102, 102);" y="345" opacity="1">Category 5</text><text x="592.3333333333334" text-anchor="middle" transform="translate(0,0)" style="color: rgb(102, 102, 102); cursor: default; font-size: 11px; fill: rgb(102, 102, 102);" y="345" opacity="1">Category 6</text></g><g class="highcharts-axis-labels highcharts-yaxis-labels" data-z-index="7" aria-hidden="true"><text x="53" text-anchor="end" transform="translate(0,0)" style="color: rgb(102, 102, 102); cursor: default; font-size: 11px; fill: rgb(102, 102, 102);" y="330" opacity="1">20</text><text x="53" text-anchor="end" transform="translate(0,0)" style="color: rgb(102, 102, 102); cursor: default; font-size: 11px; fill: rgb(102, 102, 102);" y="275" opacity="1">40</text><text x="53" text-anchor="end" transform="translate(0,0)" style="color: rgb(102, 102, 102); cursor: default; font-size: 11px; fill: rgb(102, 102, 102);" y="219" opacity="1">60</text><text x="53" text-anchor="end" transform="translate(0,0)" style="color: rgb(102, 102, 102); cursor: default; font-size: 11px; fill: rgb(102, 102, 102);" y="163" opacity="1">80</text><text x="53" text-anchor="end" transform="translate(0,0)" style="color: rgb(102, 102, 102); cursor: default; font-size: 11px; fill: rgb(102, 102, 102);" y="107" opacity="1">100</text><text x="53" text-anchor="end" transform="translate(0,0)" style="color: rgb(102, 102, 102); cursor: default; font-size: 11px; fill: rgb(102, 102, 102);" y="51" opacity="1">120</text></g><text x="640" class="highcharts-credits" text-anchor="end" data-z-index="8" y="395" style="cursor: pointer; color: rgb(153, 153, 153); font-size: 9px; fill: rgb(153, 153, 153);" aria-label="Chart credits: Highcharts.com" aria-hidden="false">Highcharts.com</text></svg>